name C:\Users\u0101727\Documents\MyRepositories\upper-imu-dc\OpenSim\subject0\MA\ResultsMA\grid_4nodes_9dim\angles_4.mot
datacolumns 10
datarows 42
range 450.01000000 450.42000000
endheader 
time	clav_prot	clav_elev	scapula_abduction	scapula_elevation	scapula_upward_rot	scapula_winging	plane_elv	shoulder_elv	axial_rot	
        450.01000000	        -50.00000000	         10.00000000	        -40.00000000	         10.00000000	         90.00000000	         10.00000000	         30.00000000	         63.33333333	        -90.00000000	
        450.02000000	        -38.33333333	         10.00000000	        -40.00000000	         10.00000000	         90.00000000	         10.00000000	         30.00000000	         63.33333333	        -90.00000000	
        450.03000000	        -26.66666667	         10.00000000	        -40.00000000	         10.00000000	         90.00000000	         10.00000000	         30.00000000	         63.33333333	        -90.00000000	
        450.04000000	        -15.00000000	         10.00000000	        -40.00000000	         10.00000000	         90.00000000	         10.00000000	         30.00000000	         63.33333333	        -90.00000000	
        450.05000000	        -50.00000000	         20.00000000	        -40.00000000	         10.00000000	         90.00000000	         10.00000000	         30.00000000	         63.33333333	        -90.00000000	
        450.06000000	        -38.33333333	         20.00000000	        -40.00000000	         10.00000000	         90.00000000	         10.00000000	         30.00000000	         63.33333333	        -90.00000000	
        450.07000000	        -26.66666667	         20.00000000	        -40.00000000	         10.00000000	         90.00000000	         10.00000000	         30.00000000	         63.33333333	        -90.00000000	
        450.08000000	        -15.00000000	         20.00000000	        -40.00000000	         10.00000000	         90.00000000	         10.00000000	         30.00000000	         63.33333333	        -90.00000000	
        450.09000000	        -50.00000000	        -10.00000000	        -21.66666667	         10.00000000	         90.00000000	         10.00000000	         30.00000000	         63.33333333	        -90.00000000	
        450.10000000	        -38.33333333	        -10.00000000	        -21.66666667	         10.00000000	         90.00000000	         10.00000000	         30.00000000	         63.33333333	        -90.00000000	
        450.11000000	        -26.66666667	        -10.00000000	        -21.66666667	         10.00000000	         90.00000000	         10.00000000	         30.00000000	         63.33333333	        -90.00000000	
        450.12000000	        -15.00000000	        -10.00000000	        -21.66666667	         10.00000000	         90.00000000	         10.00000000	         30.00000000	         63.33333333	        -90.00000000	
        450.13000000	        -50.00000000	          0.00000000	        -21.66666667	         10.00000000	         90.00000000	         10.00000000	         30.00000000	         63.33333333	        -90.00000000	
        450.14000000	        -38.33333333	          0.00000000	        -21.66666667	         10.00000000	         90.00000000	         10.00000000	         30.00000000	         63.33333333	        -90.00000000	
        450.15000000	        -26.66666667	          0.00000000	        -21.66666667	         10.00000000	         90.00000000	         10.00000000	         30.00000000	         63.33333333	        -90.00000000	
        450.16000000	        -15.00000000	          0.00000000	        -21.66666667	         10.00000000	         90.00000000	         10.00000000	         30.00000000	         63.33333333	        -90.00000000	
        450.17000000	        -50.00000000	         10.00000000	        -21.66666667	         10.00000000	         90.00000000	         10.00000000	         30.00000000	         63.33333333	        -90.00000000	
        450.18000000	        -38.33333333	         10.00000000	        -21.66666667	         10.00000000	         90.00000000	         10.00000000	         30.00000000	         63.33333333	        -90.00000000	
        450.19000000	        -26.66666667	         10.00000000	        -21.66666667	         10.00000000	         90.00000000	         10.00000000	         30.00000000	         63.33333333	        -90.00000000	
        450.20000000	        -15.00000000	         10.00000000	        -21.66666667	         10.00000000	         90.00000000	         10.00000000	         30.00000000	         63.33333333	        -90.00000000	
        450.21000000	        -50.00000000	         20.00000000	        -21.66666667	         10.00000000	         90.00000000	         10.00000000	         30.00000000	         63.33333333	        -90.00000000	
        450.22000000	        -38.33333333	         20.00000000	        -21.66666667	         10.00000000	         90.00000000	         10.00000000	         30.00000000	         63.33333333	        -90.00000000	
        450.23000000	        -26.66666667	         20.00000000	        -21.66666667	         10.00000000	         90.00000000	         10.00000000	         30.00000000	         63.33333333	        -90.00000000	
        450.24000000	        -15.00000000	         20.00000000	        -21.66666667	         10.00000000	         90.00000000	         10.00000000	         30.00000000	         63.33333333	        -90.00000000	
        450.25000000	        -50.00000000	        -10.00000000	         -3.33333333	         10.00000000	         90.00000000	         10.00000000	         30.00000000	         63.33333333	        -90.00000000	
        450.26000000	        -38.33333333	        -10.00000000	         -3.33333333	         10.00000000	         90.00000000	         10.00000000	         30.00000000	         63.33333333	        -90.00000000	
        450.27000000	        -26.66666667	        -10.00000000	         -3.33333333	         10.00000000	         90.00000000	         10.00000000	         30.00000000	         63.33333333	        -90.00000000	
        450.28000000	        -15.00000000	        -10.00000000	         -3.33333333	         10.00000000	         90.00000000	         10.00000000	         30.00000000	         63.33333333	        -90.00000000	
        450.29000000	        -50.00000000	          0.00000000	         -3.33333333	         10.00000000	         90.00000000	         10.00000000	         30.00000000	         63.33333333	        -90.00000000	
        450.30000000	        -38.33333333	          0.00000000	         -3.33333333	         10.00000000	         90.00000000	         10.00000000	         30.00000000	         63.33333333	        -90.00000000	
        450.31000000	        -26.66666667	          0.00000000	         -3.33333333	         10.00000000	         90.00000000	         10.00000000	         30.00000000	         63.33333333	        -90.00000000	
        450.32000000	        -15.00000000	          0.00000000	         -3.33333333	         10.00000000	         90.00000000	         10.00000000	         30.00000000	         63.33333333	        -90.00000000	
        450.33000000	        -50.00000000	         10.00000000	         -3.33333333	         10.00000000	         90.00000000	         10.00000000	         30.00000000	         63.33333333	        -90.00000000	
        450.34000000	        -38.33333333	         10.00000000	         -3.33333333	         10.00000000	         90.00000000	         10.00000000	         30.00000000	         63.33333333	        -90.00000000	
        450.35000000	        -26.66666667	         10.00000000	         -3.33333333	         10.00000000	         90.00000000	         10.00000000	         30.00000000	         63.33333333	        -90.00000000	
        450.36000000	        -15.00000000	         10.00000000	         -3.33333333	         10.00000000	         90.00000000	         10.00000000	         30.00000000	         63.33333333	        -90.00000000	
        450.37000000	        -50.00000000	         20.00000000	         -3.33333333	         10.00000000	         90.00000000	         10.00000000	         30.00000000	         63.33333333	        -90.00000000	
        450.38000000	        -38.33333333	         20.00000000	         -3.33333333	         10.00000000	         90.00000000	         10.00000000	         30.00000000	         63.33333333	        -90.00000000	
        450.39000000	        -26.66666667	         20.00000000	         -3.33333333	         10.00000000	         90.00000000	         10.00000000	         30.00000000	         63.33333333	        -90.00000000	
        450.40000000	        -15.00000000	         20.00000000	         -3.33333333	         10.00000000	         90.00000000	         10.00000000	         30.00000000	         63.33333333	        -90.00000000	
        450.41000000	        -50.00000000	        -10.00000000	         15.00000000	         10.00000000	         90.00000000	         10.00000000	         30.00000000	         63.33333333	        -90.00000000	
        450.42000000	        -38.33333333	        -10.00000000	         15.00000000	         10.00000000	         90.00000000	         10.00000000	         30.00000000	         63.33333333	        -90.00000000	
